# xmcd CD database file
#
# Track frame offsets:
#	150
#	12575
#	31270
#	49305
#	72350
#	82890
#	99985
#	131070
#	151355
#	176000
#	198260
#	248275
#	269640
#
# Disc length: 3915 seconds
#
# Revision: 0
# Processed by: cddbd v1.4PL0 Copyright (c) Steve Scherf et al.
# Submitted via: CDex 1.50
#
DISCID=aa0f490d
DTITLE=Ben Harper - Church House Blues disc1
DYEAR=1994
DGENRE=Blues
TTITLE0=The Three of Us 
TTITLE1=Waiting on an Angel 
TTITLE2=Power of the Gospel 
TTITLE3=If I Could Hear My Mother Pray Again 
TTITLE4=Oppression->
TTITLE5=Get Up Stand Up 
TTITLE6=Don't Take That Attitude to Your Grave 
TTITLE7=Walk Away 
TTITLE8=Not Fire Not Ice 
TTITLE9=Forever 
TTITLE10=Whipping Boy
TTITLE11=Ben chats with crowd 
TTITLE12=Pleasure and Pain 
EXTD=YEAR: 1994
EXTT0=
EXTT1=
EXTT2=
EXTT3=
EXTT4=
EXTT5=
EXTT6=
EXTT7=
EXTT8=
EXTT9=
EXTT10=
EXTT11=
EXTT12=
PLAYORDER=
